<?xml version="1.0" encoding="UTF-8"?>
<svg width="200" height="200" viewBox="0 0 200 200" fill="none" xmlns="http://www.w3.org/2000/svg">
  <g transform="translate(40, 40)">
    <!-- Isometric blocks -->
    <path d="M60 20L90 35L60 50L30 35L60 20Z" fill="#4F46E5" fillOpacity="0.2"/>
    <path d="M30 35L60 50L60 80L30 65L30 35Z" fill="#4F46E5" fillOpacity="0.3"/>
    <path d="M60 50L90 35L90 65L60 80L60 50Z" fill="#4F46E5" fillOpacity="0.4"/>
    
    <!-- Additional blocks -->
    <path d="M20 45L50 60L20 75L-10 60L20 45Z" fill="#06B6D4" fillOpacity="0.2"/>
    <path d="M100 45L130 60L100 75L70 60L100 45Z" fill="#06B6D4" fillOpacity="0.2"/>
    
    <!-- Lock icon -->
    <path d="M55 30H65C67.7614 30 70 32.2386 70 35V45H50V35C50 32.2386 52.2386 30 55 30Z" fill="#4F46E5"/>
    <rect x="45" y="45" width="30" height="25" rx="4" fill="#4F46E5"/>
  </g>
</svg> 