<svg width="763" height="210" viewBox="0 0 763 210" fill="none" xmlns="http://www.w3.org/2000/svg">
<path d="M110.784 121.255L29.8858 168.081L18 156.195L88.9184 108.542L110.784 121.255Z" fill="url(#paint0_linear_32270_27438)"/>
<path d="M112.613 124.422L31.6114 171.069L35.9618 187.306L112.69 149.715L112.613 124.422Z" fill="url(#paint1_linear_32270_27438)"/>
<path d="M115.828 124.422L196.83 171.069L192.479 187.306L115.751 149.715L115.828 124.422Z" fill="url(#paint2_linear_32270_27438)"/>
<path d="M117.657 121.255L198.555 168.08L210.441 156.195L139.523 108.542L117.657 121.255Z" fill="url(#paint3_linear_32270_27438)"/>
<path d="M115.829 117.795L115.726 24.322L131.962 19.9714L137.771 105.215L115.829 117.795Z" fill="url(#paint4_linear_32270_27438)"/>
<path d="M112.171 117.795L112.274 24.322L96.0382 19.9714L90.2286 105.215L112.171 117.795Z" fill="url(#paint5_linear_32270_27438)"/>
<path d="M271.45 157.45L236.95 52.45H258.1L284.35 135.85L310.15 52.45H331.45L296.8 157.45H271.45Z" fill="#1B3F73"/>
<path d="M365.587 158.8C348.037 158.8 336.637 145.6 336.637 129.55V79.45H355.387V124.75C355.387 134.65 362.287 140.95 370.987 140.95C380.437 140.95 386.737 134.05 386.737 124.75V79.45H405.487V142L410.887 157.45H390.187L387.337 149.35C383.887 153.85 376.687 158.8 365.587 158.8Z" fill="#1B3F73"/>
<path d="M422.985 157.45V46.45H441.735V157.45H422.985Z" fill="#1B3F73"/>
<path d="M464.957 157.45V96.55H451.757V79.45H465.407V60.25H483.707V79.45H502.907V96.55H483.707V139.45H503.207V157.45H464.957Z" fill="#1B3F73"/>
<path d="M516.894 157.45V79.45H535.644V157.45H516.894ZM513.744 55.3C513.744 48.1 518.994 43 526.194 43C533.244 43 538.644 48.1 538.644 55.3C538.644 62.35 533.244 67.45 526.194 67.45C518.994 67.45 513.744 62.35 513.744 55.3Z" fill="#1B3F73"/>
<path d="M582.078 158.8C562.278 158.8 551.328 148.15 547.728 137.65L563.178 130.15C565.578 136 572.178 142.3 582.828 142.3C591.978 142.3 596.778 139.15 596.778 134.8C596.778 131.35 594.078 128.95 588.828 127.9L573.378 125.05C561.678 122.8 551.928 116.35 551.928 102.25C551.928 87.7 565.428 78.1 582.978 78.1C602.328 78.1 611.628 88.15 614.778 97.75L599.628 105.1C598.278 99.7 592.278 94.3 582.678 94.3C575.178 94.3 570.378 97.3 570.378 101.65C570.378 105.55 573.678 107.5 578.328 108.4L594.228 111.4C608.478 114.1 615.978 123.1 615.978 133.9C615.978 148.15 603.678 158.8 582.078 158.8Z" fill="#1B3F73"/>
<path d="M628.507 157.45V79.45H647.257V157.45H628.507ZM625.357 55.3C625.357 48.1 630.607 43 637.807 43C644.857 43 650.257 48.1 650.257 55.3C650.257 62.35 644.857 67.45 637.807 67.45C630.607 67.45 625.357 62.35 625.357 55.3Z" fill="#1B3F73"/>
<path d="M699.391 175.3C714.091 175.3 721.741 165.85 721.741 155.2V147.7C717.241 153.4 708.391 157.75 697.291 157.75C676.741 157.75 659.341 142.6 659.341 118C659.341 93.25 676.891 78.1 697.291 78.1C708.091 78.1 717.091 82.9 721.741 89.05V79.45H740.491V153.25C740.491 174.1 726.841 193.15 699.391 193.15C680.341 193.15 666.991 182.2 662.041 169.75L677.791 161.35C681.091 169.75 689.191 175.3 699.391 175.3ZM678.391 118C678.391 130.6 687.241 140.35 700.141 140.35C713.341 140.35 721.891 130.6 721.891 118C721.891 105.25 713.341 95.65 700.141 95.65C687.241 95.65 678.391 105.25 678.391 118Z" fill="#1B3F73"/>
<defs>
<linearGradient id="paint0_linear_32270_27438" x1="114.221" y1="19.9714" x2="114.221" y2="187.306" gradientUnits="userSpaceOnUse">
<stop stop-color="#33E6BF"/>
<stop offset="1" stop-color="#0439C7"/>
</linearGradient>
<linearGradient id="paint1_linear_32270_27438" x1="114.221" y1="19.9714" x2="114.221" y2="187.306" gradientUnits="userSpaceOnUse">
<stop stop-color="#33E6BF"/>
<stop offset="1" stop-color="#0439C7"/>
</linearGradient>
<linearGradient id="paint2_linear_32270_27438" x1="114.221" y1="19.9714" x2="114.221" y2="187.306" gradientUnits="userSpaceOnUse">
<stop stop-color="#33E6BF"/>
<stop offset="1" stop-color="#0439C7"/>
</linearGradient>
<linearGradient id="paint3_linear_32270_27438" x1="114.221" y1="19.9714" x2="114.221" y2="187.306" gradientUnits="userSpaceOnUse">
<stop stop-color="#33E6BF"/>
<stop offset="1" stop-color="#0439C7"/>
</linearGradient>
<linearGradient id="paint4_linear_32270_27438" x1="114.221" y1="19.9714" x2="114.221" y2="187.306" gradientUnits="userSpaceOnUse">
<stop stop-color="#33E6BF"/>
<stop offset="1" stop-color="#0439C7"/>
</linearGradient>
<linearGradient id="paint5_linear_32270_27438" x1="114.221" y1="19.9714" x2="114.221" y2="187.306" gradientUnits="userSpaceOnUse">
<stop stop-color="#33E6BF"/>
<stop offset="1" stop-color="#0439C7"/>
</linearGradient>
</defs>
</svg>
